<svg width="30" height="30" viewBox="0 0 30 30" fill="none" xmlns="http://www.w3.org/2000/svg">
<path d="M15 0C6.72867 0 0 6.72867 0 15C0 23.2713 6.72867 30 15 30C23.2713 30 30 23.2713 30 15C30 6.72867 23.2713 0 15 0ZM15 23.7499C14.3099 23.7499 13.7501 23.1901 13.7501 22.5C13.7501 21.8099 14.3099 21.2501 15 21.2501C15.6901 21.2501 16.2499 21.8099 16.2499 22.5C16.2499 23.1901 15.6901 23.7499 15 23.7499ZM16.9787 15.8025C16.5363 16.0062 16.2499 16.4525 16.2499 16.9389V17.5001C16.2499 18.1899 15.6912 18.75 15 18.75C14.3088 18.75 13.7501 18.1899 13.7501 17.5001V16.9389C13.7501 15.48 14.6075 14.1426 15.9313 13.5313C17.205 12.9451 18.1249 11.3887 18.1249 10.6249C18.1249 8.90259 16.7237 7.5 15 7.5C13.2763 7.5 11.8751 8.90259 11.8751 10.6249C11.8751 11.315 11.3161 11.8751 10.6249 11.8751C9.9337 11.8751 9.375 11.315 9.375 10.6249C9.375 7.5238 11.8987 4.99992 15 4.99992C18.1013 4.99992 20.625 7.5238 20.625 10.6249C20.625 12.3138 19.1599 14.7963 16.9787 15.8025Z" fill="#8F7A65"/>
</svg>
